<svg id="visual" viewBox="0 0 960 540" width="960" height="540" xmlns="http://www.w3.org/2000/svg" xmlns:xlink="http://www.w3.org/1999/xlink" version="1.1"><g transform="translate(480.0203602943628 283.7717665220706)"><path d="M143.3 -166.1C187.6 -133.6 226.8 -90.2 226.4 -46.7C226 -3.1 186.1 40.6 154.8 84.3C123.5 128 100.9 171.6 66.4 185.4C31.9 199.2 -14.5 183.2 -59.6 165.9C-104.7 148.5 -148.5 129.8 -180.7 94.4C-212.9 59.1 -233.5 7.1 -224.2 -38.6C-215 -84.3 -176 -123.7 -133.6 -156.6C-91.3 -189.4 -45.6 -215.7 1.9 -218C49.5 -220.3 99 -198.6 143.3 -166.1" fill="#656552"></path></g></svg>